<svg width="177" height="63" viewBox="0 0 177 63" fill="none" xmlns="http://www.w3.org/2000/svg">
<g clip-path="url(#clip0_2154_519)">
<path d="M176.999 26.4111C176.862 25.9186 176.615 25.4262 176.615 24.9337C176.634 18.9055 176.679 12.8772 176.725 6.84901C176.734 5.34423 176.725 3.83945 176.761 2.3438C176.761 2.0702 176.917 1.79661 176.999 1.52301V26.4111Z" fill="black"/>
<path d="M177 39.7626C176.863 38.6956 176.616 37.6286 176.598 36.5524C176.561 33.9806 176.616 31.3997 176.68 28.8279C176.698 28.1713 176.881 27.5146 176.991 26.8671V39.7626H177Z" fill="black"/>
<path d="M6.86263 13.6251C6.86263 14.7012 6.78953 15.7773 6.88091 16.8444C6.98143 18.0391 7.19161 19.2338 7.41093 20.4194C7.95923 23.3377 8.59891 26.2378 9.10152 29.1653C9.59499 32.0563 9.91483 34.9838 10.4174 37.8748C10.6093 38.9783 11.0937 40.0362 11.4592 41.1488C10.5819 41.5501 10.1616 41.2765 9.95138 40.1C9.02841 34.8379 8.07803 29.5848 7.13678 24.3318C7.1185 24.2041 7.03626 24.0855 6.82608 23.9943C6.82608 25.1343 6.81694 26.2743 6.82608 27.4143C6.87177 31.3358 6.90832 35.2574 6.97229 39.1789C6.98143 39.8811 6.71642 40.1091 6.04018 40.0818C4.83393 40.0271 3.62767 40.0179 2.41227 39.9997C1.74518 39.9997 1.40706 39.8082 1.4162 39.0147C1.46189 28.536 1.48016 18.0482 1.49844 7.56947C1.49844 5.6087 1.49844 3.64793 1.46189 1.68716C1.44361 0.784296 1.76345 0.419502 2.71384 0.437742C4.79737 0.483341 6.88091 0.474221 8.96444 0.419502C9.83258 0.392142 10.1981 0.729577 10.3261 1.54124C11.0023 5.6999 11.7242 9.84944 12.4004 14.0172C12.8025 16.5069 13.1407 19.0058 13.5519 21.4955C13.6615 22.1795 13.9174 22.8452 14.1002 23.5201C14.2281 23.5201 14.3652 23.5201 14.4931 23.5201C14.685 22.0427 14.8769 20.5744 15.0688 19.1061C16.0253 19.0575 16.4975 18.3035 16.4853 16.8444C16.202 17.1818 15.9735 17.4554 15.6902 17.7928C15.1785 17.0359 15.3156 16.6255 16.0284 16.1969C16.4396 15.9506 16.7686 15.449 16.9239 14.9839C16.9787 14.8198 16.403 14.4732 16.1837 14.154C15.9918 13.8804 15.7451 13.5247 15.7908 13.242C16.1015 11.0533 16.5127 8.87361 16.8143 6.68485C16.9331 5.78198 17.262 5.44455 18.2855 5.86406C18.4592 5.11623 18.6236 4.44136 18.8155 3.61145C18.2216 3.67529 17.9017 3.71177 17.2712 3.78473C17.4722 3.1281 17.6276 2.61739 17.7829 2.10668C18.185 2.27083 18.5962 2.43499 19.044 2.61739C18.9983 2.70859 19.0623 2.64475 19.0623 2.57179C19.108 0.437742 19.108 0.437742 21.2281 0.446862C23.0466 0.446862 24.8651 0.446862 26.6836 0.446862C27.04 0.446862 27.4056 0.492461 27.5518 0.501581C27.6706 1.62332 27.8442 2.58091 27.8625 3.52937C27.9082 6.8034 27.9173 10.0866 27.8625 13.3606C27.8625 13.7892 27.5152 14.3182 27.168 14.61C26.2176 15.4034 26.1993 15.6588 27.2045 16.3428C27.5061 16.5434 27.8533 16.9356 27.8716 17.2639C27.9447 18.5771 27.899 19.8904 27.899 21.1945C27.2137 21.1307 26.6197 21.0669 26.0257 21.0121C25.98 21.1672 25.9252 21.3222 25.8795 21.4864C26.4917 21.7691 27.104 22.0518 27.9447 22.444C27.9447 24.0764 27.9447 25.9186 27.9447 27.7517C27.9264 31.5182 27.8808 35.2938 27.8899 39.0604C27.8899 39.8082 27.6066 40.0727 26.8938 40.0453C25.6053 40.0088 24.3168 40.0179 23.0283 39.9997C22.1967 39.9997 21.8952 39.6896 21.9226 38.7503C22.014 35.4854 21.9683 32.2205 21.9865 28.9555C22.0048 25.946 22.0779 22.9364 22.0779 19.9269C22.0779 17.9752 21.9865 16.0236 21.9317 14.0719C21.8038 14.0719 21.6758 14.0537 21.5479 14.0446C21.4565 14.61 21.3194 15.1663 21.2738 15.7317C21.0087 19.4253 21.0544 23.1097 21.4382 26.8033C21.5845 28.2442 21.3651 29.7216 21.3377 31.1808C21.3377 31.6277 21.5113 32.0928 21.4382 32.5214C21.3743 32.8588 21.0544 33.1507 20.8534 33.4699C20.7711 33.4152 20.698 33.3513 20.6158 33.2966V23.5931C20.5518 23.5657 20.4879 23.5292 20.4239 23.5019C20.2777 23.8667 20.0584 24.2223 20.0035 24.6054C19.6837 26.6391 19.4735 28.6911 19.0897 30.7157C18.9252 31.5547 18.514 32.3846 18.0388 33.1051C17.6001 33.7708 17.2803 34.2724 17.9931 34.9473C18.2216 35.1662 18.3404 35.6313 18.3038 35.9687C18.1941 37.0175 18.0662 38.0754 17.7738 39.0786C17.6641 39.4525 17.1158 39.9176 16.732 39.9541C15.4526 40.0727 14.1641 39.9815 12.8756 40.0271C11.8704 40.0635 11.4775 39.5619 11.3313 38.6317C10.2804 31.8648 9.22032 25.0978 8.13286 18.3309C7.87698 16.7441 7.50231 15.1663 7.18247 13.5886C7.08195 13.6068 6.98143 13.6159 6.88091 13.6342L6.86263 13.6251ZM15.279 37.7927C15.2425 36.5433 14.5205 35.5583 13.8717 35.8319C13.2686 36.0873 12.6472 36.8077 12.4827 37.4279C12.2999 38.1392 12.9762 38.6773 13.7621 38.6226C14.4474 38.577 15.1419 38.3581 15.279 37.7927ZM16.9696 10.9894C16.8691 12.1385 16.7868 13.0687 16.7137 13.999C16.8874 14.0172 17.061 14.0263 17.2346 14.0446C17.2712 13.4244 17.3077 12.7952 17.3443 12.1112C18.2307 12.2115 19.0623 12.3118 19.903 12.4121C19.3456 10.9073 18.0936 11.4454 16.9787 10.9894H16.9696ZM10.7373 4.74232C10.0885 4.17688 9.55843 3.62057 9.48533 3.67529C9.02841 4.02185 8.62633 4.46872 8.31562 4.95207C8.26079 5.03415 8.75426 5.68166 8.87306 5.64518C9.41222 5.48102 9.89655 5.17095 10.7373 4.75144V4.74232ZM23.0192 4.62376C23.4852 4.12217 23.8508 3.77561 24.1249 3.36522C24.1615 3.3105 23.5949 2.69947 23.5035 2.74507C22.9461 3.01866 22.4526 3.41082 21.9317 3.75737C22.215 3.97625 22.4891 4.19512 23.0192 4.61464V4.62376ZM15.544 23.7663C15.3795 23.7481 15.2242 23.7207 15.0597 23.7025C14.8861 24.9246 14.7124 26.1557 14.5388 27.3778L15.1237 27.4508C15.2607 26.2196 15.3978 24.9884 15.544 23.7572V23.7663ZM22.7999 10.4696C22.1328 10.3237 21.4657 10.1778 20.7986 10.0318C20.7803 10.2507 20.6523 10.5699 20.762 10.6885C21.3286 11.3086 21.9865 11.5001 22.7999 10.4696ZM10.0702 11.564C9.63154 11.1445 9.40308 10.9347 9.18376 10.7249C8.90961 11.0259 8.55322 11.2995 8.39787 11.6461C8.3339 11.7828 8.79082 12.3483 8.8822 12.3118C9.23859 12.1932 9.54016 11.9196 10.0793 11.5549L10.0702 11.564ZM5.18118 6.53893C6.31433 6.28357 6.39658 5.61782 6.24123 4.74232C4.98014 4.75144 5.0898 5.53574 5.18118 6.53893Z" fill="black"/>
<path d="M82.7188 0.465123C84.318 0.465123 85.8532 0.465123 87.3976 0.465123C87.8545 0.465123 88.3023 0.492483 88.7592 0.474243C90.6874 0.401284 90.6508 0.401284 91.1534 2.33469C92.4511 7.32326 93.7761 12.2936 95.1194 17.3551C95.9784 16.3793 95.6952 15.2393 95.6677 14.1632C95.6038 11.1536 95.5033 8.15317 95.4393 5.14361C95.421 4.16779 95.4393 3.19196 95.4393 2.0611C95.8962 2.08846 96.3348 2.1067 96.5633 2.12494C96.673 3.32876 96.7735 4.3593 96.8649 5.38985C97.0111 5.38985 97.1573 5.38985 97.3035 5.38073C97.3035 4.5417 97.3126 3.71179 97.3035 2.88189C97.3035 2.54445 97.203 2.20702 97.203 1.8787C97.203 0.419524 97.203 0.410404 98.7017 0.392164C99.6886 0.373925 100.666 0.401284 101.653 0.392164C102.512 0.373925 102.786 0.684 102.768 1.61423C102.695 4.5873 102.796 7.56038 102.768 10.5335C102.741 12.9685 102.604 15.4035 102.54 17.8476C102.521 18.3948 102.631 18.9511 102.649 19.5074C102.704 22.4075 102.796 25.3167 102.75 28.2169C102.75 28.7458 102.156 29.2656 101.8 29.8493C103.216 30.1685 102.85 31.4179 102.86 32.4667C102.869 34.6828 102.832 36.9081 102.805 39.1242C102.805 39.6349 102.768 40.1 102.019 40.0636C100.465 39.9906 98.921 39.9815 97.3675 39.9541C96.5359 39.9359 96.1521 39.5711 95.9236 38.7138C94.5711 33.5429 93.1456 28.3993 91.72 23.2557C91.0438 20.8298 90.3218 18.413 89.6273 15.9871C89.5634 15.7774 89.5268 15.522 89.5908 15.3214C89.938 14.2088 89.3989 13.5248 88.1286 12.7769C88.3114 13.9534 88.3754 14.8745 88.613 15.7409C89.5542 19.1882 90.5594 22.6173 91.5098 26.0646C92.7069 30.3783 93.8492 34.7011 95.0555 39.0148C95.5215 40.6655 95.7683 40.8114 97.468 40.9299C98.4732 41.0029 99.4693 41.0759 100.484 41.3677C98.7748 41.3677 97.0659 41.4315 95.3662 41.313C95.0463 41.2947 94.6351 40.6108 94.5072 40.1639C93.2095 35.6131 91.9393 31.0623 90.6965 26.5023C90.1116 24.3683 89.5999 22.2069 89.0333 20.0637C88.9876 19.8722 88.8231 19.7171 88.4302 19.5712V28.2898C87.7265 28.381 87.2514 28.4449 86.7762 28.4996C86.7487 28.609 86.7305 28.7185 86.7031 28.8279C86.9863 28.992 87.2879 29.3112 87.5529 29.2839C88.348 29.2292 88.4119 29.6487 88.4119 30.2597C88.4302 33.2784 88.4576 36.2879 88.4942 39.3066C88.4942 40.0453 88.1835 40.2824 87.4433 40.2277C86.237 40.1365 85.0307 40.0818 83.8245 40.1274C83.2214 40.1548 82.9107 39.9724 82.9381 39.4252C83.0112 37.9478 83.1483 36.4703 83.2579 34.9929C83.2671 34.847 83.3493 34.6828 83.3127 34.5552C82.4629 31.8101 83.0477 29.0194 83.0569 26.247C83.0569 25.4627 82.8741 24.6784 82.8741 23.894C82.9107 19.0788 83.0295 14.2635 83.0203 9.44819C83.0203 6.52071 82.8376 3.58412 82.7279 0.510723L82.7188 0.465123ZM97.2213 15.0387C95.8596 16.8353 95.7317 21.231 97.2213 22.5899V15.0387ZM95.9053 34.7467C96.0424 34.7923 96.1886 34.847 96.3257 34.8926C96.6912 34.3545 97.0476 33.8165 97.4132 33.2784C97.2944 33.1507 97.1664 33.0139 97.0476 32.8862C96.6638 33.0777 96.1338 33.1781 95.9419 33.4881C95.75 33.7982 95.8962 34.318 95.8962 34.7467H95.9053ZM99.0215 17.8567C98.6651 18.2945 98.391 18.5407 98.2722 18.8508C98.2356 18.9511 98.6925 19.398 98.8296 19.3615C99.0855 19.2794 99.3779 19.0058 99.4601 18.7504C99.515 18.568 99.25 18.2853 99.0215 17.8658V17.8567Z" fill="black"/>
<path d="M168.949 17.4098C168.894 15.823 168.821 14.2361 168.794 12.6401C168.748 9.36611 168.721 6.08296 168.739 2.80893C168.739 2.54445 169.068 2.27998 169.241 2.0155C169.388 2.30733 169.662 2.59917 169.662 2.89101C169.634 6.54807 169.543 10.2051 169.525 13.8622C169.525 14.9931 169.671 16.133 169.744 17.2639C169.89 17.273 170.027 17.2913 170.174 17.3004C170.256 17.0359 170.402 16.7806 170.402 16.5161C170.365 11.5822 170.338 6.63927 170.256 1.70542C170.238 0.720479 170.539 0.373924 171.563 0.474243C172.878 0.601921 174.213 0.556321 175.538 0.574561C176.36 0.583681 176.598 0.839037 176.461 1.76014C176.205 3.46556 176.141 5.20745 176.104 6.9311C176.059 9.07427 176.086 11.2266 176.159 13.3788C176.196 14.3911 175.931 14.9931 174.862 15.2667C174.286 15.4217 173.82 15.9415 173.299 16.2972C173.399 16.4431 173.5 16.5982 173.6 16.7441C174.368 16.2881 175.136 15.8321 176.04 15.2849C176.068 15.6406 176.123 15.978 176.123 16.3154C176.123 23.0915 176.104 29.8767 176.123 36.6527C176.123 37.4735 176.214 38.3034 176.378 39.106C176.516 39.7626 176.251 39.9541 175.702 39.9541C174.185 39.9541 172.677 39.945 171.16 39.945C170.493 39.945 170.238 39.6167 170.247 38.9509C170.311 34.2451 170.347 29.5301 170.411 24.8243C170.439 22.8726 170.466 22.9 168.529 22.8909C167.094 22.8909 165.659 22.7814 164.215 22.7358C163.978 22.7358 163.749 22.7905 163.512 22.8179C163.493 22.9182 163.466 23.0185 163.448 23.1189C163.74 23.2283 164.023 23.4107 164.334 23.4472C165.833 23.6296 167.332 23.7846 168.839 23.9123C169.497 23.967 169.753 24.2406 169.744 24.9063C169.653 29.5028 169.598 34.0992 169.497 38.6956C169.452 40.5743 169.634 40.8205 171.462 40.8023C172.412 40.8023 173.354 40.7384 174.304 40.7567C174.523 40.7567 174.734 40.9938 174.953 41.1215C174.743 41.2218 174.542 41.4224 174.331 41.4224C172.86 41.4133 171.38 41.3586 169.909 41.3221C169.168 41.3039 168.803 40.9299 168.803 40.1821C168.839 35.3577 168.839 30.5333 168.922 25.7089C168.931 24.8972 168.629 24.5507 167.916 24.5507C166.482 24.5507 165.047 24.6145 163.621 24.7422C163.42 24.7604 163.101 25.2529 163.11 25.5265C163.11 29.9405 163.128 34.3454 163.228 38.7594C163.247 39.7535 162.918 40.018 162.013 39.9815C160.578 39.9268 159.134 39.9359 157.7 39.9085C157.17 39.8994 156.74 39.79 156.74 39.0969C156.749 34.0536 156.74 29.0103 156.74 24.0308C157.353 23.8393 157.837 23.6934 158.312 23.5475C158.367 23.4381 158.413 23.3377 158.467 23.2283C156.228 22.7176 156.868 20.9392 156.841 19.6989C156.713 13.7801 156.786 7.86133 156.759 1.95166C156.759 0.866397 157.133 0.355684 158.285 0.410404C159.527 0.474243 160.779 0.465123 162.031 0.437763C162.954 0.410404 163.247 0.756958 163.238 1.70542C163.164 6.42039 163.164 11.1262 163.146 15.8412C163.146 17.4007 163.164 17.3916 164.709 17.3916C166.208 17.3916 167.697 17.3916 168.958 17.3916L168.949 17.4098ZM161.51 6.16504C160.953 5.8732 160.651 5.57224 160.396 5.60872C160.121 5.6452 159.893 6.00088 159.646 6.21976C159.902 6.42039 160.14 6.77607 160.405 6.79431C160.67 6.81255 160.962 6.50247 161.52 6.16504H161.51ZM161.273 20.6747C161.291 20.4923 161.309 20.3099 161.337 20.1275C160.907 20.0363 160.478 19.9543 160.048 19.8631C160.03 20.1275 160.003 20.4011 159.984 20.6656H161.282L161.273 20.6747Z" fill="black"/>
<path d="M46.066 16.206C46.0295 14.8015 45.9564 13.3879 45.9564 11.9835C45.9381 8.83712 45.9564 5.68165 45.9564 2.5353C45.9564 2.23435 45.9381 1.93339 45.9289 1.63243C45.8924 0.738688 46.2488 0.364774 47.2083 0.419493C48.5608 0.501572 49.9315 0.437733 51.2931 0.455973C51.8323 0.455973 52.3075 0.428613 52.3075 1.27676C52.2709 8.09842 52.2892 14.9201 52.2892 21.7417C52.2892 24.8698 52.2527 27.998 52.3075 31.1261C52.344 33.3969 53.3949 34.5643 55.378 34.7649C56.7761 34.9017 57.3975 34.1447 57.3427 32.7494C57.2148 29.8219 57.1965 26.8762 57.1873 23.9487C57.1873 20.6747 57.2513 17.4007 57.2604 14.1175C57.2696 12.0108 57.2604 9.89503 57.233 7.78834C57.2148 6.47508 57.1234 5.1527 57.0777 3.83944C57.0229 1.92427 57.1691 1.81483 58.9328 2.3985C58.9693 2.33466 59.0424 2.27083 59.0424 2.21611C58.8048 0.300935 58.8048 0.319175 60.733 0.410373C61.6743 0.455973 62.6246 0.483332 63.575 0.437733C64.3701 0.401253 64.8361 0.60189 64.7265 1.49564C64.7082 1.64155 64.7082 1.80571 64.7539 1.94251C65.1468 3.26489 64.6533 4.0492 63.2095 4.37751C64.6716 4.28631 64.8452 5.0159 64.8087 6.20149C64.7356 9.01952 64.8452 11.8467 64.8361 14.6738C64.8361 20.1275 64.7813 25.5812 64.7813 31.0349C64.7813 34.9108 63.0541 37.82 59.8649 39.9176C59.6456 40.0635 59.3805 40.2277 59.1429 40.2094C56.7761 40.0635 54.3819 40.784 52.0425 39.9359C49.0268 38.8415 47.0712 36.9172 46.3859 33.6431C45.536 29.6304 46.13 25.6177 46.0477 21.6049C46.0112 19.7992 46.0386 17.9935 46.0386 16.1877C46.8428 16.0601 47.6652 16.0053 48.442 15.7773C48.6978 15.7044 48.8258 15.2028 49.0177 14.8927C48.6887 14.8015 48.2409 14.537 48.049 14.6556C47.3454 15.1025 46.724 15.677 46.066 16.206Z" fill="black"/>
<path d="M130.494 6.78518C129.663 6.90374 128.84 7.05877 128.009 7.12261C127.296 7.17733 126.885 7.50565 126.793 8.20788C126.711 8.84627 126.583 9.47554 126.592 10.1139C126.647 17.2001 126.72 24.2862 126.784 31.3723C126.802 33.479 128.018 34.7011 130.129 34.7467C131.152 34.7649 131.874 34.1174 131.883 33.096C131.902 31.0987 131.883 29.1106 131.883 26.8854C132.258 27.0404 132.724 27.2319 133.272 27.4599C133.309 26.8033 133.355 26.1193 133.409 25.2711C135.182 25.2711 136.955 25.2438 138.719 25.3076C138.938 25.3076 139.313 25.8822 139.304 26.1831C139.258 28.7458 139.386 31.345 138.984 33.8529C138.509 36.7895 136.453 38.9418 133.802 40.0088C132.221 40.6472 130.22 40.2915 128.411 40.2733C125.34 40.2368 123.047 38.6226 121.767 36.0599C120.908 34.3454 120.607 32.2387 120.506 30.2871C120.269 25.563 120.296 20.8206 120.214 16.0874C120.214 15.8321 120.214 15.5767 120.214 15.1937H122.005L122.261 14.8745C121.904 14.4276 121.621 13.8622 121.164 13.5795C120.598 13.2238 120.506 12.9867 120.57 12.2753C120.735 10.3602 120.625 8.42675 120.625 6.85814C120.396 7.50565 119.866 8.49971 119.748 9.5485C119.601 10.8253 119.839 12.1477 119.821 13.4518C119.812 14.1723 119.62 14.8927 119.501 15.6132C119.455 15.8686 119.309 16.1513 119.364 16.3793C120.25 19.8722 119.693 23.4107 119.766 26.931C119.812 29.22 119.83 31.5274 120.031 33.8073C120.378 37.6741 122.745 40.1547 126.611 40.7567C127.89 40.9573 129.215 40.8387 130.522 40.8661C130.997 40.8661 131.481 40.8661 131.956 40.8661C131.984 41.0303 132.011 41.1944 132.039 41.3586C131.262 41.5227 130.503 41.769 129.718 41.851C126.291 42.2067 123.248 41.4589 120.99 38.65C119.748 37.0996 119.099 35.3395 119.163 33.324C119.199 32.1931 119.099 31.0623 119.099 29.9405C119.099 26.8945 119.135 23.8484 119.099 20.8115C119.071 18.6319 118.88 16.4522 118.88 14.2726C118.88 12.5125 118.852 10.7158 119.163 8.99218C119.94 4.76969 123.906 -0.273594 129.836 0.0547214C130.997 0.11856 132.176 0.282718 133.3 0.592793C136.663 1.5139 138.225 4.10394 138.902 7.22293C139.295 9.03778 139.231 10.9621 139.313 12.8408C139.358 13.7436 139.084 14.1814 137.951 13.9169C136.827 13.6616 135.621 13.7528 134.451 13.771C133.537 13.7892 133.126 13.5156 133.245 12.5398C133.4 11.3542 133.501 10.1504 133.547 8.9557C133.574 8.33555 133.428 7.70628 133.355 7.03141C134.113 6.7487 134.917 6.45686 135.868 6.11031C134.963 5.07064 134.131 5.26216 133.501 5.81847C132.761 6.45686 132.167 6.3839 131.362 5.99175C130.047 5.34424 128.977 5.49928 128.283 6.31095C129.032 6.49334 129.754 6.67574 130.476 6.84902V6.83078L130.494 6.78518ZM132.852 32.6217C132.953 32.6309 133.053 32.6491 133.144 32.6582C133.181 32.0016 133.208 31.345 133.245 30.6883C133.117 30.6883 132.98 30.6792 132.852 30.6701V32.6217Z" fill="black"/>
<path d="M104.003 57.3457L101.628 52.0835C101.573 52.1109 101.518 52.1383 101.472 52.1747V62.6899H98.8312C98.8312 60.0543 98.8586 57.4004 98.8312 54.7374C98.7947 51.9194 98.685 49.1013 98.6484 46.2924C98.6484 45.955 99.014 45.3075 99.1236 45.3257C99.9369 45.4716 101.161 45.5081 101.436 46.0188C102.569 48.0799 103.409 50.2961 104.259 52.2386C104.954 50.6882 105.776 48.8916 106.562 47.0859C107.366 45.2345 107.814 45.0248 109.852 45.5628V62.8085C109.139 62.8085 108.426 62.8541 107.732 62.7811C107.467 62.7538 107.129 62.4802 107.019 62.2339C106.946 62.0698 107.229 61.7506 107.339 61.4952C107.494 61.1304 107.869 60.6653 107.759 60.4191C106.791 58.2212 107.312 55.9686 107.366 53.7251C107.385 53.1232 107.312 52.5213 107.019 51.9011C106.142 53.7707 105.265 55.6403 104.378 57.5099C104.25 57.4551 104.122 57.4095 103.994 57.3548L104.003 57.3457Z" fill="black"/>
<path d="M80.2892 45.3804V56.1236C79.7684 56.0506 79.3846 55.9959 78.7083 55.8956C78.9276 56.2878 79.019 56.6708 79.1927 56.7164C80.0882 56.9444 80.0608 57.6284 80.1065 58.3033C80.1979 59.5618 80.3349 60.8203 80.3715 62.0789C80.3715 62.3251 79.9877 62.772 79.7409 62.7993C78.9733 62.8905 78.1783 62.8358 77.566 62.8358C77.7214 60.2184 77.8859 57.5098 78.0412 54.8833C76.4055 54.5094 74.9799 54.1811 73.6274 53.871C74.66 54.5367 74.4681 55.7679 74.4773 56.9353C74.4773 58.9234 74.4773 60.9115 74.4773 62.9909C73.4446 62.927 72.5582 62.8632 71.8637 62.8176C71.8637 58.6863 71.681 54.6188 71.946 50.5879C72.0648 48.8186 71.8454 47.1405 71.4434 45.3531H74.5595C74.4864 47.0402 74.4225 48.7092 74.3219 50.3781C74.2031 52.4118 74.194 52.4118 76.2684 52.4209C76.7527 52.4209 77.237 52.4209 77.9955 52.4209C77.8676 50.3416 77.8402 48.3626 77.5752 46.4201C77.4381 45.4169 77.6391 45.198 78.5804 45.3531C79.1561 45.4442 79.7501 45.3713 80.2892 45.3713V45.3804Z" fill="black"/>
<path d="M121.803 52.1929V54.783C120.359 54.6827 118.888 54.5915 117.335 54.482C117.335 56.3151 117.335 57.9293 117.335 59.5344C117.335 60.2914 117.718 60.5559 118.495 60.5285C120.067 60.4738 121.639 60.5102 123.284 60.5102C123.284 60.5011 123.338 60.647 123.329 60.7838C123.201 62.6078 123.75 63.0182 121.246 62.8267C119.144 62.6717 117.024 62.7902 114.84 62.7902V45.5263C115.059 45.499 115.379 45.4351 115.69 45.4351C117.654 45.4351 119.628 45.4534 121.593 45.4625C123.348 45.4625 123.375 45.499 123.329 47.2226C123.329 47.478 123.284 47.7424 123.275 47.8428C121.602 47.8428 119.994 47.8701 118.386 47.8336C117.572 47.8154 117.335 48.1346 117.38 48.9098C117.435 49.8491 117.38 50.7885 117.362 51.7369C117.344 52.3115 117.554 52.5669 118.175 52.4939C119.363 52.3662 120.551 52.2841 121.812 52.1838L121.803 52.1929Z" fill="black"/>
<path d="M24.0339 54.4455C16.8786 54.4455 9.73246 54.4455 2.57716 54.4455C2.23905 54.4455 1.8461 54.5185 1.57195 54.3817C1.28866 54.2358 0.941406 53.871 0.941406 53.6065C0.941406 53.3785 1.35263 53.0593 1.64506 52.9408C1.93748 52.8222 2.31215 52.9043 2.65941 52.9043C10.9479 52.9043 19.2363 52.9225 27.5248 52.9317C31.9112 52.9317 36.2975 52.9408 40.6839 52.9225C44.2662 52.9043 47.8575 52.8222 51.4397 52.8313C51.6956 52.8313 52.1068 53.3147 52.1617 53.6156C52.2073 53.8619 51.8418 54.3726 51.5951 54.4273C51.0194 54.5459 50.3888 54.4455 49.7857 54.4455C41.2048 54.4455 32.6239 54.4455 24.0431 54.4455C24.0431 54.4455 24.0431 54.4455 24.0431 54.4547L24.0339 54.4455Z" fill="black"/>
<path d="M155.974 54.2723C149.659 54.2723 143.335 54.2723 137.021 54.2723C135.659 54.2723 134.307 54.3726 132.945 54.3818C132.47 54.3818 131.784 54.6189 131.766 53.7525C131.748 52.9682 132.196 52.7675 132.936 52.7858C135.65 52.877 138.373 52.9499 141.087 52.9591C147.923 52.9591 154.767 52.9317 161.603 52.9226C166.026 52.9226 170.458 52.9226 174.881 52.9226C175.073 52.9226 175.31 52.8679 175.438 52.9591C175.731 53.1779 175.977 53.4698 176.233 53.7342C175.95 53.9531 175.667 54.3453 175.374 54.3453C173.026 54.4091 170.686 54.4091 168.338 54.4091C164.216 54.4091 160.086 54.4091 155.964 54.4091C155.964 54.3544 155.964 54.3088 155.964 54.2541L155.974 54.2723Z" fill="black"/>
<path d="M64.3983 62.8723H61.5837C61.5837 60.3917 61.5837 57.8928 61.5837 55.4031C61.5837 52.9134 61.5837 50.4419 61.5837 47.7789C60.6333 47.8884 59.7926 47.9796 58.8056 48.089C58.8056 47.3685 58.7599 46.6389 58.8422 45.9185C58.8605 45.7361 59.3082 45.4625 59.555 45.4625C61.7116 45.4351 63.8683 45.4807 66.0249 45.4625C66.7742 45.4625 67.0393 45.7817 66.9844 46.493C66.9387 47.0037 66.9844 47.5236 66.9844 48.0616C64.1059 47.6695 64.115 47.6695 64.115 50.5058C64.115 53.6339 64.0602 56.762 64.0876 59.8901C64.0876 60.8842 64.2978 61.8691 64.4074 62.8723H64.3983Z" fill="black"/>
<path d="M85.0326 45.4807H87.6096C88.2767 47.4415 88.9072 49.2837 89.5378 51.1351C89.7297 51.1351 89.9216 51.1259 90.1135 51.1168C90.7257 49.3111 91.3472 47.5053 92.0142 45.5263H94.7923C91.5573 50.98 89.9033 56.5614 91.4385 62.9453C90.3968 62.8267 89.62 62.7811 88.8707 62.617C88.7062 62.5805 88.5508 62.1062 88.5508 61.8327C88.56 60.6653 88.5325 59.4888 88.697 58.3397C89.3276 54.0534 87.2166 50.5331 85.5991 46.8578C85.4255 46.4657 85.2702 46.0644 85.0234 45.4716L85.0326 45.4807Z" fill="black"/>
<path d="M5.05349 41.3403C3.49084 41.7234 1.94646 41.6139 0.475192 40.9208C0.210181 40.7931 0 40.246 0 39.8903C0.0274149 29.3386 0.0822448 18.7778 0.118798 8.22612C0.118798 6.49335 0.0182766 4.76057 0.0274149 3.0278C0.0274149 2.68124 0.301564 2.33469 0.438639 1.99725C0.59399 2.04285 0.749342 2.07933 0.904693 2.12493C0.904693 3.20107 0.904693 4.27722 0.904693 5.35336C0.92297 13.0049 0.959523 20.6565 0.959523 28.2989C0.959523 31.8374 0.877278 35.3851 0.804172 38.9236C0.776757 40.4466 1.2154 40.857 2.86943 40.8023C3.6005 40.7749 4.3407 40.8023 5.0809 40.8023C5.07176 40.9847 5.06263 41.1671 5.05349 41.3403Z" fill="black"/>
<path d="M57.9006 40.9117C57.6082 41.2309 57.5534 41.3494 57.4711 41.3768C54.5194 42.1885 49.0273 42.2705 46.6331 38.8871C46.2219 38.3034 45.6827 37.7197 45.5365 37.0631C45.0339 34.8014 44.2388 32.4758 44.3576 30.2141C44.8328 21.1672 44.3302 12.1294 44.5039 3.09163C44.5039 2.73596 44.7414 2.3894 44.8694 2.04285C45.0339 2.39852 45.3537 2.74508 45.3537 3.10075C45.3446 6.21974 45.2258 9.34786 45.2349 12.4668C45.2349 16.3063 45.3629 20.1367 45.3629 23.9761C45.3629 25.9278 45.0613 27.8794 45.1435 29.8219C45.2166 31.801 45.2897 33.862 45.8929 35.7225C47.1814 39.717 50.8458 41.6413 55.3876 41.0941C56.1461 41.0029 56.9045 40.9846 57.9189 40.9117H57.9006Z" fill="black"/>
<path d="M82.1902 41.3495C81.3952 41.6139 81.2124 40.9664 81.1942 40.2186C81.1576 38.2578 81.1576 36.2971 81.1302 34.3363C81.0754 30.4147 81.0114 26.5023 80.9474 22.5808C80.9474 22.4713 80.9383 22.3528 80.9474 22.2433C81.5231 17.6287 80.9474 13.0049 81.1485 8.38116C81.2307 6.54806 81.2124 4.70585 81.3038 2.86364C81.3221 2.56268 81.6968 2.28909 81.9069 1.99725C81.9983 2.03373 82.0806 2.07021 82.172 2.10669C82.172 3.05516 82.2085 4.01274 82.172 4.96121C82.0714 7.33237 81.8521 9.69442 81.843 12.0565C81.8247 14.3638 82.3547 16.7258 81.98 18.9602C81.6876 20.7203 82.4735 22.2251 82.2999 23.894C82.0897 25.9004 82.172 27.9433 82.0897 29.9679C82.0806 30.2779 81.843 30.5789 81.7516 30.8981C81.6602 31.2082 81.4683 31.655 81.6054 31.8283C82.6563 33.2237 81.9801 34.774 82.0897 36.2514C82.108 36.5433 82.0075 36.8534 82.0166 37.1543C82.0623 38.4949 82.1263 39.8264 82.1902 41.3495Z" fill="black"/>
<path d="M156.156 1.96987C156.156 5.75461 156.156 9.53024 156.156 13.315C156.156 16.0236 156.119 18.7413 156.11 21.4499C156.092 25.3441 156.082 29.2383 156.092 33.1233C156.092 35.2665 156.174 37.4005 156.146 39.5437C156.128 40.5651 156.585 40.8843 157.517 40.8387C158.495 40.784 159.482 40.7475 160.469 40.7566C160.816 40.7566 161.154 40.939 161.501 41.0302C161.483 41.1579 161.465 41.2947 161.447 41.4224C160.259 41.4224 159.071 41.4862 157.892 41.4133C155.095 41.24 155.461 41.6777 155.461 38.8232C155.461 27.7061 155.461 16.589 155.47 5.4719C155.47 4.45959 155.525 3.43817 155.589 2.42586C155.598 2.24347 155.799 2.07019 155.909 1.89691C155.991 1.91515 156.082 1.94251 156.165 1.96075L156.156 1.96987Z" fill="black"/>
<path d="M130.486 6.81255C130.669 6.96759 130.834 7.17735 131.044 7.27766C132.387 7.8887 132.954 8.82804 132.862 10.3146C132.798 11.3269 132.743 12.3392 132.68 13.3515C132.616 14.3547 133.155 14.7012 134.078 14.6465C135.092 14.5827 136.106 14.5097 137.121 14.4824C137.322 14.4824 137.523 14.6374 137.715 14.7195C137.706 14.8563 137.687 15.0022 137.678 15.139C136.783 15.1846 135.878 15.2849 134.982 15.2758C131.775 15.2667 131.775 15.2484 131.885 12.0565C131.93 10.5973 132.104 9.11988 130.888 7.94341C130.623 7.68806 130.614 7.18647 130.486 6.79431V6.81255Z" fill="black"/>
<path d="M25.8251 41.3677C24.3995 41.3677 22.974 41.3677 21.5575 41.3677C20.7534 41.3677 20.4061 40.9756 20.4152 40.1821C20.4335 38.9054 20.3696 37.6286 20.4152 36.3518C20.4244 36.0691 20.7442 35.8046 20.9179 35.531C21.0549 35.832 21.3017 36.1329 21.3017 36.4339C21.3017 37.3003 21.2011 38.1575 21.1463 39.0239C21.0458 40.4466 21.457 40.8752 22.8735 40.8296C23.6228 40.8023 24.3813 40.7293 25.1306 40.7567C25.423 40.7658 25.6972 40.9938 25.9896 41.1306C25.9348 41.2127 25.8891 41.3039 25.8343 41.386L25.8251 41.3677Z" fill="black"/>
<path d="M83.1035 41.0394C84.922 40.4101 86.439 40.5925 87.1244 41.4863C85.7993 41.2947 84.5291 41.8875 83.1035 41.0394Z" fill="black"/>
<path d="M12.739 41.0394C13.927 40.5925 15.4165 40.7019 16.0014 41.4954C14.7951 41.4406 13.7533 41.395 12.7207 41.3403L12.739 41.0394Z" fill="black"/>
<path d="M15.2796 37.7927C15.1334 38.3581 14.448 38.577 13.7626 38.6226C12.9767 38.6773 12.3005 38.1392 12.4833 37.4279C12.6478 36.7986 13.2692 36.0873 13.8723 35.8319C14.512 35.5583 15.243 36.5433 15.2796 37.7927Z" fill="white"/>
<path d="M16.9799 10.9894C18.0947 11.4454 19.3467 10.9074 19.9041 12.4121C19.0725 12.3118 18.2318 12.2115 17.3454 12.1112C17.3088 12.8043 17.2723 13.4244 17.2357 14.0446C17.0621 14.0264 16.8885 14.0172 16.7148 13.999C16.7971 13.0688 16.8793 12.1385 16.9707 10.9894H16.9799Z" fill="white"/>
<path d="M10.7384 4.74235C9.89766 5.17098 9.41333 5.47194 8.87417 5.6361C8.75537 5.67258 8.26191 5.03419 8.31674 4.94299C8.62744 4.45963 9.02952 4.01276 9.48644 3.66621C9.55041 3.61149 10.0896 4.1678 10.7384 4.73323V4.74235Z" fill="white"/>
<path d="M23.0191 4.62377C22.4891 4.20426 22.2149 3.98538 21.9316 3.7665C22.4434 3.41083 22.946 3.02779 23.5034 2.7542C23.5948 2.7086 24.1614 3.31963 24.1248 3.37435C23.8507 3.78474 23.4852 4.1313 23.0191 4.63289V4.62377Z" fill="white"/>
<path d="M15.5443 23.7663C15.4072 24.9975 15.2701 26.2287 15.1239 27.4599L14.5391 27.3869C14.7127 26.1649 14.8863 24.9337 15.0599 23.7116C15.2244 23.7298 15.3798 23.7572 15.5443 23.7754V23.7663Z" fill="white"/>
<path d="M22.8004 10.4696C21.9871 11.5002 21.3292 11.2995 20.7626 10.6885C20.6621 10.5791 20.7809 10.2599 20.7991 10.0319C21.4662 10.1778 22.1333 10.3237 22.8004 10.4696Z" fill="white"/>
<path d="M10.0805 11.564C9.54137 11.9288 9.23981 12.2024 8.88342 12.3209C8.80117 12.3483 8.34425 11.7829 8.39908 11.6552C8.56357 11.2995 8.91083 11.035 9.18498 10.7341C9.4043 10.9438 9.63276 11.1536 10.0714 11.5731L10.0805 11.564Z" fill="white"/>
<path d="M5.1913 6.53892C5.09992 5.53574 4.99026 4.75143 6.25135 4.74231C6.4067 5.61782 6.31531 6.28357 5.1913 6.53892Z" fill="white"/>
<path d="M97.2221 15.0386V22.5899C95.7325 21.2401 95.8605 16.8352 97.2221 15.0386Z" fill="white"/>
<path d="M95.9166 34.7467C95.9166 34.318 95.7704 33.7982 95.9623 33.4881C96.1542 33.1781 96.6842 33.0777 97.068 32.8862C97.1868 33.0139 97.3147 33.1507 97.4335 33.2784C97.068 33.8165 96.7116 34.3545 96.3461 34.8926C96.209 34.847 96.0628 34.7923 95.9257 34.7467H95.9166Z" fill="white"/>
<path d="M99.0327 17.8567C99.252 18.2853 99.5261 18.5681 99.4713 18.7413C99.3891 18.9967 99.1058 19.2794 98.8408 19.3524C98.7037 19.3889 98.2468 18.942 98.2833 18.8417C98.393 18.5316 98.6763 18.2853 99.0327 17.8476V17.8567Z" fill="white"/>
<path d="M161.51 6.16504C160.953 6.49335 160.669 6.81255 160.395 6.79431C160.13 6.77607 159.893 6.42952 159.637 6.21976C159.883 6.00088 160.112 5.65433 160.386 5.60873C160.642 5.57225 160.943 5.8732 161.501 6.16504H161.51Z" fill="white"/>
<path d="M161.274 20.6656H159.977C159.995 20.4011 160.022 20.1275 160.041 19.863C160.47 19.9542 160.9 20.0363 161.329 20.1275C161.311 20.3099 161.292 20.4923 161.265 20.6747L161.274 20.6656Z" fill="white"/>
<path d="M46.0665 16.206C46.7153 15.677 47.3458 15.1025 48.0495 14.6556C48.2414 14.537 48.6892 14.8015 49.0182 14.8927C48.8354 15.2028 48.6983 15.6953 48.4424 15.7773C47.6657 16.0053 46.8432 16.06 46.0391 16.1877L46.0665 16.2151V16.206Z" fill="white"/>
<path d="M132.844 32.6218V30.6701C132.972 30.6701 133.109 30.6792 133.237 30.6883C133.2 31.345 133.173 32.0016 133.136 32.6582C133.036 32.6491 132.935 32.6309 132.844 32.6218Z" fill="white"/>
</g>
<defs>
<clipPath id="clip0_2154_519">
<rect width="177" height="63" fill="white"/>
</clipPath>
</defs>
</svg>
